<?xml version="1.0" encoding="UTF-8"?><svg id="a" xmlns="http://www.w3.org/2000/svg" viewBox="0 0 24 24"><defs><style>.b{fill:#453e3b;}.c{fill:#9e4232;}.d{fill:#fefefe;}.e{fill:#faae4b;}</style></defs><path class="b" d="M21.97,10.58c0,.2,0,.4,0,.59,1.79.01,1.73,3.03,0,3.12v1.84c1.28.22,1.3,1.65,1.23,2.69-.14,2.13-1.76,3.92-3.92,4.08H4.84c-2.35-.13-3.86-1.98-4-4.26-.06-1.01,0-2.31,1.23-2.52l-.04-1.86c-1.67-.1-1.67-3.03.04-3.09l-.02-.64c-1.86-.32-1.15-2.66-.62-3.84C2.9,3.36,6.74,1.51,10.26,1.22c4.55-.38,10.03.74,12.25,5.2.55,1.11,1.46,3.95-.54,4.07,0,.02-.08.08-.1.08H2.16l-.05-.08c.14.07.13.6,0,.68,0-.03.01-.08.04-.08.05,0,.65-.01.69,0l.06.08s.04-.04.06-.06c.34-.24,2.03.78,2.4,1.01,1.05.55,1.6.56,2.63.02,1.58-1.11,3.05-1.39,4.85-.46.98.66,2.09,1.25,3.22.51.99-.68,2.06-1.12,3.29-1.12h2.52s-.06-.46-.06-.46c.01-.09.14-.12.18-.04Z"/><path class="c" d="M21.97,10.49v.08c-.12-.02-.09.07-.08.15.01.14.07.29.04.45-1.55.06-3.09-.22-4.56.37-.73.3-1.46,1-2.24,1.07-1.25.12-1.85-.7-2.9-1.12-.75-.3-1.63-.37-2.41-.17-1.47.37-2.3,1.83-4.04,1.12-.89-.37-1.85-1.26-2.89-1.26h-.78v-.68h19.86Z"/><path class="e" d="M1.99,9.55s-.12-.13-.13-.14c-.28-.51.14-1.72.36-2.24C4.79,1.21,15.01.69,19.62,4.35c1.32,1.05,2.73,2.98,2.68,4.76,0,.24-.16.4-.38.46-6.49.07-13,0-19.5.03-.12-.03-.33-.02-.43-.06Z"/><path class="e" d="M3.11,21.31c-.68-.53-1.15-1.31-1.28-2.17-.06-.4-.11-1.2-.04-1.59.04-.25.24-.44.48-.49h10.49c1.57.59,2.7,3.72,4.69,2.22.71-.54,1.33-1.45,2.06-2.01.09-.07.18-.13.29-.17.31-.12,1.63-.13,1.98-.07.63.11.56.92.54,1.41-.07,1.71-.98,3.1-2.7,3.48-4.91.13-9.85.02-14.77.06-.63-.05-1.24-.28-1.73-.66Z"/><path class="c" d="M2.11,16.12l.04-1.86c.37.05.64.06,1,.21.32.14.57.38.85.54,1.64.93,3.24,1.04,4.93.16.76-.4,1.33-1,2.29-.76.51.13,1.01.56,1.48.81,1.23.64,2.72.79,4,.19.49-.23,1.85-1.14,2.29-1.14h2.94s-.04.05-.04.06v1.74s.05.03.04.06h-1.88c-1.06,0-2.26,1.85-3.09,2.41-.51.34-.74.31-1.23-.04-.84-.62-1.95-2.37-3.09-2.37H2.11Z"/><path class="d" d="M1.87,13.23c-.41-.4-.17-1.15.47-1.17,1.53-.05,2.11.84,3.33,1.29,2.5.94,3.53-2.08,6.29-1.04.61.23,1.1.68,1.69.94,2.26,1.02,3.12-1,5.09-1.15,1.02-.08,2.14.05,3.17,0,.64.16.64,1.05.04,1.26-.91.07-1.89-.06-2.79,0-1.34.1-2.23,1.22-3.53,1.46-1.38.26-2.11-.14-3.22-.8-2.6-1.55-3.13.69-5.31.86-.51.04-1.06,0-1.54-.15-.95-.28-1.67-1.06-2.62-1.28-.28-.06-.87-.06-1.05-.24Z"/><path class="b" d="M8.49,4.61c.2-.01.46.11.51.32.17.73-1.15,1.93-1.79,1.49-.44-.29.02-1.05.29-1.31.21-.21.69-.48.99-.5Z"/><path class="b" d="M13.32,5.35c-.55.55-1.92-.52-1.8-1.31.12-.74,1.09-.27,1.43.03.3.27.73.92.37,1.28Z"/><path class="b" d="M16.2,4.95c.4-.04.56.27.51.64-.07.43-.47.9-.85,1.1-.83.43-1.24-.08-.83-.87.2-.38.73-.82,1.17-.87Z"/></svg>