<?xml version="1.0" encoding="UTF-8"?><svg id="a" xmlns="http://www.w3.org/2000/svg" viewBox="0 0 24 24"><path d="M1.09,10.24c-.4-2.56,1.48-4.99,3.58-6.26,4.92-2.98,15.66-2.47,17.95,3.77.2.54.68,2.3.07,2.6l-20.86.08-.74-.18ZM11.83,3.98c-1.08.46-.6,1.13.12,1.66.34.26.83.58,1.2.21.66-.66-.63-1.79-1.31-1.87ZM8.02,4.99c-.95.04-2.06,2.09-.7,2.05.68-.02,2.18-1.73.7-2.05ZM16.76,5.53c-.64-.65-2.31.81-1.87,1.66.56.92,2.55-.96,1.87-1.66Z"/><path d="M22.94,16.63c.24.24.21,1.48.17,1.86-.14,1.65-.96,2.9-2.61,3.29H3.54c-2.52-.4-2.84-2.8-2.59-4.95l.62-.36h11.36c1.42.21,2.65,3.26,4.15,2.59.86-.38,2.09-2.31,2.8-2.53.41-.13,2.81-.14,3.07.11Z"/><path d="M10.45,12.13c2.13-.12,3.04,1.95,5.05,1.41.62-.17.99-.69,1.57-.96,1.09-.5,4.1-.71,5.24-.46.92.2.92,1.43,0,1.63-1,.22-2.48-.09-3.59.06-1.72.25-2.49,1.89-4.75,1.45-1.13-.22-2.29-1.53-3.43-1.49-1.44.05-2.59,1.7-4.5,1.55-1.48-.11-2.32-1.16-3.47-1.45-.6-.15-1.79.04-1.79-.87s1.34-.85,2-.74c1.31.22,2.21,1.47,3.69,1.38,1.33-.08,2.31-1.43,3.97-1.52Z"/></svg>
